<svg xmlns="http://www.w3.org/2000/svg" viewBox="0 0 1200 360" width="1200" height="360" role="img" aria-label="OSMM — Open Source Makerspace Manager">
  <title>OSMM — Open Source Makerspace Manager</title>
  <defs>
    <style>
      .word { font-family: 'Space Grotesk', 'Segoe UI', system-ui, -apple-system, sans-serif; font-weight: 700; fill: #ffffff; }
      .eyebrow { font-family: 'Space Grotesk', 'Segoe UI', system-ui, -apple-system, sans-serif; font-weight: 600; fill: #7dd3fc; letter-spacing: 4px; }
      .headline { font-family: 'Space Grotesk', 'Segoe UI', system-ui, -apple-system, sans-serif; font-weight: 700; fill: #ffffff; }
      .sub { font-family: 'Space Grotesk', 'Segoe UI', system-ui, -apple-system, sans-serif; font-weight: 400; fill: #9a988f; }
    </style>
  </defs>

  <!-- backdrop -->
  <rect width="1200" height="360" rx="22" fill="#0c0d10"/>

  <!-- brand lockup: parts-crate logomark + wordmark -->
  <g transform="translate(76,44) scale(1.7)">
    <polygon points="8,22 2,10 28,10 32,22" fill="none" stroke="#ffffff" stroke-width="3.2" stroke-linejoin="round" stroke-linecap="round"/>
    <polygon points="32,22 36,10 62,10 56,22" fill="none" stroke="#ffffff" stroke-width="3.2" stroke-linejoin="round" stroke-linecap="round"/>
    <rect x="8" y="22" width="48" height="34" rx="5" fill="none" stroke="#ffffff" stroke-width="3.2"/>
    <rect x="12" y="27" width="18" height="11" rx="2.5" fill="#7dd3fc"/>
    <rect x="34" y="27" width="18" height="11" rx="2.5" fill="#fcdf46"/>
    <rect x="12" y="42" width="18" height="11" rx="2.5" fill="#74dd9c"/>
    <rect x="34" y="42" width="18" height="11" rx="2.5" fill="#f9a8d4"/>
  </g>
  <text class="word" x="222" y="142" font-size="82" letter-spacing="4">OSMM</text>

  <!-- eyebrow + headline + sub -->
  <text class="eyebrow" x="78" y="228" font-size="15">OPEN SOURCE MAKERSPACE MANAGER</text>
  <text class="headline" x="76" y="278" font-size="36">Every part, tool and project — on one shelf.</text>
  <text class="sub" x="78" y="316" font-size="18">Self-hostable platform to run your whole makerspace — inventory, lending, equipment &amp; 3D printing.</text>

  <!-- decorative parts-bin cluster (echoes the four brand colours) -->
  <g transform="translate(1004,128)">
    <rect x="0"  y="0"  width="62" height="42" rx="9" fill="#7dd3fc"/>
    <rect x="72" y="0"  width="62" height="42" rx="9" fill="#fcdf46"/>
    <rect x="0"  y="52" width="62" height="42" rx="9" fill="#74dd9c"/>
    <rect x="72" y="52" width="62" height="42" rx="9" fill="#f9a8d4"/>
  </g>
</svg>
